<svg xmlns="http://www.w3.org/2000/svg" viewBox="0 0 48 48" width="192" height="192" fill="none">
  <defs>
    <linearGradient id="g" x1="0%" y1="0%" x2="100%" y2="100%">
      <stop offset="0%" stop-color="#E86B4B" />
      <stop offset="50%" stop-color="#D4553A" />
      <stop offset="100%" stop-color="#C24B2A" />
    </linearGradient>
    <linearGradient id="a" x1="0%" y1="0%" x2="100%" y2="100%">
      <stop offset="0%" stop-color="#f59e0b" />
      <stop offset="100%" stop-color="#d97706" />
    </linearGradient>
  </defs>
  <rect x="2" y="2" width="44" height="44" rx="14" fill="url(#g)" />
  <path d="M24 10L9 22.5H13.5V36H34.5V22.5H39L24 10Z" fill="white" fill-opacity="0.95" />
  <path d="M21.5 24.5C21.5 22.57 23.07 21 25 21C26.38 21 27.56 21.82 28.1 22.99L31.5 20.5L32.5 21.5L29.1 24.01C29.37 24.48 29.5 25.02 29.5 25.5C29.5 27.43 27.93 29 26 29C24.62 29 23.44 28.18 22.9 27.01L19.5 29.5L18.5 28.5L21.9 25.99C21.63 25.52 21.5 24.98 21.5 24.5Z" fill="#E86B4B" />
  <rect x="21.5" y="29.5" width="5" height="6.5" rx="1.5" fill="#E86B4B" fill-opacity="0.25" />
  <circle cx="39" cy="9" r="5" fill="url(#a)" />
  <path d="M37.5 9L38.5 10L40.5 8" stroke="white" stroke-width="1.5" stroke-linecap="round" stroke-linejoin="round" />
</svg>
