<svg xmlns="http://www.w3.org/2000/svg" viewBox="0 0 180 180" width="180" height="180" fill="none">
  <defs>
    <linearGradient id="fg" x1="0%" y1="0%" x2="100%" y2="100%">
      <stop offset="0%" stop-color="#E86B4B" />
      <stop offset="50%" stop-color="#D4553A" />
      <stop offset="100%" stop-color="#C24B2A" />
    </linearGradient>
    <linearGradient id="ag" x1="0%" y1="0%" x2="100%" y2="100%">
      <stop offset="0%" stop-color="#f59e0b" />
      <stop offset="100%" stop-color="#d97706" />
    </linearGradient>
  </defs>
  <rect width="180" height="180" rx="40" fill="url(#fg)" />
  <path d="M90 37.5L33.75 84.4h16.9v50.6h78.7V84.4h16.9L90 37.5Z" fill="white" fill-opacity="0.95" />
  <path d="M80.6 91.9c0-7.2 5.9-13.1 13.1-13.1 5.2 0 9.6 3.1 11.7 7.5l12.4-8.8 3.8 3.8-12.4 8.8c1 1.8 1.6 3.8 1.6 5.8 0 7.2-5.9 13.1-13.1 13.1-5.2 0-9.6-3.1-11.7-7.5L73.5 110l-3.8-3.8 12.4-8.8c-1-1.8-1.5-3.8-1.5-5.5Z" fill="#E86B4B" />
  <rect x="80.6" y="110.6" width="18.8" height="24.4" rx="5.6" fill="#E86B4B" fill-opacity="0.25" />
  <circle cx="146.3" cy="33.8" r="18.8" fill="url(#ag)" />
  <path d="M140.6 33.8l3.8 3.7 7.5-7.5" stroke="white" stroke-width="5.6" stroke-linecap="round" stroke-linejoin="round" />
</svg>
